<svg xmlns="http://www.w3.org/2000/svg" width="432.34mm" height="23.99mm" viewBox="0 0 1225.53 68"><defs><style>.cls-1{fill:#1d1d1b;}</style></defs><title>Artboard 1</title><g id="Layer_1" data-name="Layer 1"><path class="cls-1" d="M375.55,50.74c-.41,0-1,0-1.56-.06-5.19-.27-7-1.43-8.67-3.79-1.87-2.57-3.38-5.53-5-8.26-.8-1.38-1.46-1.67-3.31-1.67l-1.22,0v7.19c0,4,.5,4.26,4.18,4.68v1.62H346V48.8c3.77-.4,4.16-.72,4.16-4.68V25.47c0-3.89-.49-4.29-4.16-4.62V19.22h13.33c4,0,6.42.46,8.34,1.76a7.26,7.26,0,0,1,3.23,6.36c0,4.23-2.76,6.6-6.07,8,.77,1.46,2.71,4.61,4.15,6.8a41.06,41.06,0,0,0,3.7,5,6.2,6.2,0,0,0,3.2,2.14ZM357.46,35.08c2.22,0,3.8-.35,4.91-1.3a6.8,6.8,0,0,0,2.39-5.72c0-5.1-3.1-6.94-6.14-6.94a3.56,3.56,0,0,0-2.32.48c-.37.3-.49.85-.49,1.91V35.08Z"/><path class="cls-1" d="M377.43,50.42V48.89c2.74-.32,3.05-.53,3.05-3.88V35.46c0-3.13-.21-3.32-2.68-3.68V30.35a44.58,44.58,0,0,0,8-1.8V45c0,3.26.24,3.56,3.14,3.88v1.53ZM382.83,25a3.19,3.19,0,0,1-3.14-3.1,3.14,3.14,0,0,1,3.19-3.14A3.07,3.07,0,0,1,386,21.9,3.13,3.13,0,0,1,382.83,25Z"/><path class="cls-1" d="M410.07,45.88c-2.17,3-5.39,5.12-8.3,5.12a10,10,0,0,1-10.23-10.24,11.44,11.44,0,0,1,4.88-9.25,13.56,13.56,0,0,1,8-2.89,7.37,7.37,0,0,1,4.3,1.2,1.83,1.83,0,0,1,.87,1.64,2.83,2.83,0,0,1-2,2.5,1.46,1.46,0,0,1-1-.51c-1.86-1.59-3.49-2.32-4.94-2.32-2.33,0-4.77,2.12-4.77,7.24,0,6.48,4.61,8.6,6.93,8.6a7.28,7.28,0,0,0,5.38-2.24Z"/><path class="cls-1" d="M425.24,50.42V48.89c2.34-.32,2.57-.62,2.57-3.41V37.23c0-3.8-1.53-5.31-3.88-5.3a5.58,5.58,0,0,0-4.05,1.78V45.48c0,2.77.29,3.09,2.73,3.41v1.53H411.52V48.89c2.5-.27,3-.45,3-3.54V22.81c0-2.33-.23-2.89-3.11-3.27V18.1a41.63,41.63,0,0,0,8.47-1.63v15.4c1.69-1.66,4.15-3.25,6.64-3.25,4.1,0,6.68,2.63,6.68,8.08v8.67c0,3.07.35,3.19,2.82,3.52v1.53Z"/><path class="cls-1" d="M454.14,51a4.05,4.05,0,0,1-2.72-1,4.49,4.49,0,0,1-1.22-1.91C448.34,49.35,446,51,444.88,51a6.16,6.16,0,0,1-6.3-6.09c0-2.48,1.21-3.77,3.78-4.74,2.87-1,6.6-2.23,7.68-3.15V35.31c0-2.82-1.2-4.41-3.41-4.41a2.5,2.5,0,0,0-2,1,9.5,9.5,0,0,0-1.2,3.15,1.7,1.7,0,0,1-1.83,1.45A2.72,2.72,0,0,1,439,34.15c0-.8.59-1.41,1.65-2.14A22.38,22.38,0,0,1,448,28.62,7.75,7.75,0,0,1,452.66,30c1.93,1.44,2.58,3.32,2.58,5.78V44.4c0,2.27.78,2.88,1.58,2.88a3.64,3.64,0,0,0,1.58-.43l.51,1.53ZM450,38.89c-.93.49-2.3,1.16-3.31,1.67-1.6.78-2.55,1.66-2.55,3.35a3.34,3.34,0,0,0,3.11,3.66,4,4,0,0,0,2.75-1.1Z"/><path class="cls-1" d="M472.79,50.42h-12.1V48.89c2.71-.29,3-.53,3-3.49V35.07c0-2.67-.19-2.87-2.63-3.3V30.38a37.88,37.88,0,0,0,8-1.88v5.22c2-3,3.82-5.1,5.94-5.1a2.76,2.76,0,0,1,3,2.68,4.16,4.16,0,0,1-2.17,3.57,1.17,1.17,0,0,1-1.4-.19c-.78-.69-1.39-1.35-2.22-1.35s-2.23.92-3.16,3v9.08c0,3,.31,3.16,3.78,3.51Z"/><path class="cls-1" d="M503.73,49.19A68.86,68.86,0,0,0,495,51v-2.9c-.87.56-2.08,1.26-2.95,1.82a5.93,5.93,0,0,1-2.89,1c-4,0-9.55-3.62-9.55-10.62,0-6.61,5.83-11.76,13-11.76a9.44,9.44,0,0,1,2.39.28V22.84c0-2.73-.28-2.92-3.4-3.27V18.1a58.22,58.22,0,0,0,8.78-1.63V44.54c0,2.56.31,2.83,2.11,3l1.23.13ZM495,33.09a4.49,4.49,0,0,0-4.11-2.41c-1.77,0-5.29,1.19-5.29,8.13,0,6.12,3.54,8.7,6,8.74A6,6,0,0,0,495,46.42Z"/><path class="cls-1" d="M532.68,50.42V48.8c3.06-.42,3.19-.93,2.52-2.91-.53-1.59-1.37-3.83-2.19-6.14H523.3c-.61,1.72-1.3,3.56-1.85,5.22-1,3.06,0,3.44,3.8,3.83v1.62H513.66V48.8c3-.39,3.8-.78,5.44-4.92l10-25,2-.38c3,8.3,6.33,17,9.42,25.15,1.69,4.36,2.13,4.71,5.35,5.1v1.62Zm-4.43-23.87c-1.44,3.69-2.89,7.31-4.17,10.92h8.1Z"/><path class="cls-1" d="M561.54,50.42V48.89c2.28-.29,2.48-.53,2.48-3.82V37c0-3.39-1.51-4.87-3.71-4.87a6.81,6.81,0,0,0-4.21,1.81V45.38c0,3.07.23,3.22,2.5,3.51v1.53H547.73V48.89c2.73-.4,3-.5,3-3.63V35.31c0-3-.37-3.11-2.65-3.54V30.33a41.06,41.06,0,0,0,8.06-1.86c0,.83-.06,2.46-.06,3.58,1-.67,2-1.4,3.14-2.12a6.9,6.9,0,0,1,3.83-1.31c3.87,0,6.3,2.83,6.3,7.64v9.09c0,3.08.29,3.22,2.76,3.54v1.53Z"/><path class="cls-1" d="M599.15,49.19A68.86,68.86,0,0,0,590.43,51v-2.9c-.86.56-2.08,1.26-2.95,1.82a5.94,5.94,0,0,1-2.88,1c-4,0-9.56-3.62-9.56-10.62,0-6.61,5.83-11.76,13-11.76a9.44,9.44,0,0,1,2.39.28V22.84c0-2.73-.27-2.92-3.4-3.27V18.1a58.22,58.22,0,0,0,8.78-1.63V44.54c0,2.56.31,2.83,2.12,3l1.22.13Zm-8.72-16.1a4.48,4.48,0,0,0-4.1-2.41c-1.78,0-5.3,1.19-5.3,8.13,0,6.12,3.54,8.7,6,8.74a6,6,0,0,0,3.38-1.13Z"/><path class="cls-1" d="M619.84,45.94c-3,4.15-6.65,5.06-8.5,5.06-6.23,0-9.85-4.77-9.85-10.42A12.51,12.51,0,0,1,604.92,32a10.41,10.41,0,0,1,7.37-3.41A7.73,7.73,0,0,1,620,36.31c0,.86-.09,1.55-.74,1.71-.93.22-7.48.59-12.5.78.07,5.56,3.29,8.17,6.73,8.17A8.21,8.21,0,0,0,619,44.71Zm-8.57-15.41c-2,0-3.84,2.19-4.26,6,2.22,0,4.34-.06,6.65-.14.73,0,1-.18,1-1C614.73,33,613.43,30.53,611.27,30.53Z"/><path class="cls-1" d="M635,50.42h-12.1V48.89c2.71-.29,3-.53,3-3.49V35.07c0-2.67-.19-2.87-2.64-3.3V30.38a38,38,0,0,0,8-1.88v5.22c2-3,3.82-5.1,5.94-5.1a2.76,2.76,0,0,1,3,2.68A4.18,4.18,0,0,1,638,34.87a1.17,1.17,0,0,1-1.4-.19c-.79-.69-1.39-1.35-2.23-1.35s-2.22.92-3.15,3v9.08c0,3,.3,3.16,3.78,3.51Z"/><path class="cls-1" d="M654.9,35.25c-1.12-3.16-2.62-4.83-5.11-4.83a2.62,2.62,0,0,0-2.69,2.75c0,1.81,1.26,2.74,3.83,3.89,4,1.82,6.41,3.38,6.41,6.95,0,4.67-4.38,7-8.42,7a14.5,14.5,0,0,1-6-1.41c-.21-1.2-.64-4.28-.8-5.93l1.51-.27c1,3,2.83,5.76,6,5.76a2.71,2.71,0,0,0,3-2.77c0-1.72-.92-2.82-3.75-4.2-3.23-1.57-6.19-3.2-6.19-7s3.07-6.56,8-6.56a23.22,23.22,0,0,1,5,.68c.15,1.25.54,4.3.75,5.55Z"/><path class="cls-1" d="M679,45.94c-3,4.15-6.65,5.06-8.5,5.06-6.23,0-9.85-4.77-9.85-10.42A12.52,12.52,0,0,1,664.11,32a10.38,10.38,0,0,1,7.37-3.41,7.73,7.73,0,0,1,7.72,7.69c0,.86-.1,1.55-.75,1.71-.92.22-7.48.59-12.5.78.07,5.56,3.29,8.17,6.73,8.17a8.21,8.21,0,0,0,5.51-2.26Zm-8.57-15.41c-2,0-3.84,2.19-4.26,6,2.22,0,4.35-.06,6.65-.14.74,0,1-.18,1-1C673.91,33,672.61,30.53,670.45,30.53Z"/><path class="cls-1" d="M695.84,50.42V48.89c2.28-.29,2.48-.53,2.48-3.82V37c0-3.39-1.51-4.87-3.72-4.87a6.78,6.78,0,0,0-4.2,1.81V45.38c0,3.07.23,3.22,2.5,3.51v1.53H682V48.89c2.73-.4,3-.5,3-3.63V35.31c0-3-.37-3.11-2.65-3.54V30.33a41.06,41.06,0,0,0,8.06-1.86c0,.83-.06,2.46-.06,3.58,1-.67,2-1.4,3.14-2.12a6.87,6.87,0,0,1,3.83-1.31c3.87,0,6.3,2.83,6.3,7.64v9.09c0,3.08.29,3.22,2.76,3.54v1.53Z"/><path class="cls-1" d="M737.9,26.92c-.91-3.1-2.26-6.47-6.71-6.47a4.55,4.55,0,0,0-4.76,4.85c0,2.88,1.9,4.5,6,6.59,5.35,2.7,8.35,5.09,8.35,9.78,0,5.45-4.59,9.47-11.22,9.47a24.67,24.67,0,0,1-7.81-1.52c-.32-1.19-1-5.57-1.39-7.95l1.74-.41c1,3.09,3.44,8,8.25,8,3.11,0,5-2,5-5.11s-1.82-4.69-5.91-6.9c-5-2.7-8.13-5.07-8.13-9.88s3.8-8.77,10.7-8.77a33.68,33.68,0,0,1,6.68.88c.19,1.76.48,4.05.86,7.11Z"/><path class="cls-1" d="M760.08,51a4.07,4.07,0,0,1-2.72-1,4.49,4.49,0,0,1-1.22-1.91c-1.85,1.24-4.21,2.89-5.32,2.89a6.15,6.15,0,0,1-6.29-6.09c0-2.48,1.2-3.77,3.78-4.74,2.86-1,6.59-2.23,7.68-3.15V35.31c0-2.82-1.2-4.41-3.42-4.41a2.48,2.48,0,0,0-2,1,9.48,9.48,0,0,0-1.21,3.15,1.7,1.7,0,0,1-1.83,1.45,2.72,2.72,0,0,1-2.58-2.36c0-.8.6-1.41,1.65-2.14A22.47,22.47,0,0,1,754,28.62,7.78,7.78,0,0,1,758.61,30c1.93,1.44,2.57,3.32,2.57,5.78V44.4c0,2.27.78,2.88,1.59,2.88a3.64,3.64,0,0,0,1.57-.43l.51,1.53ZM756,38.89c-.94.49-2.3,1.16-3.31,1.67-1.61.78-2.56,1.66-2.56,3.35a3.34,3.34,0,0,0,3.12,3.66,4,4,0,0,0,2.75-1.1Z"/><path class="cls-1" d="M766,50.42V48.89c2.85-.38,3.05-.62,3.05-3.69V23c0-2.65-.27-2.94-3-3.41V18.1a44,44,0,0,0,8.32-1.63V45.2c0,3.16.2,3.37,3.07,3.69v1.53Z"/><path class="cls-1" d="M798.67,45.88c-2.17,3-5.39,5.12-8.3,5.12a10,10,0,0,1-10.23-10.24A11.44,11.44,0,0,1,785,31.51a13.54,13.54,0,0,1,8-2.89,7.39,7.39,0,0,1,4.31,1.2,1.84,1.84,0,0,1,.86,1.64,2.82,2.82,0,0,1-2,2.5,1.44,1.44,0,0,1-1-.51c-1.86-1.59-3.5-2.32-4.94-2.32-2.33,0-4.77,2.12-4.77,7.24,0,6.48,4.61,8.6,6.92,8.6a7.31,7.31,0,0,0,5.39-2.24Z"/><path class="cls-1" d="M819.27,45.94c-3,4.15-6.65,5.06-8.5,5.06-6.23,0-9.85-4.77-9.85-10.42A12.52,12.52,0,0,1,804.36,32a10.39,10.39,0,0,1,7.37-3.41,7.73,7.73,0,0,1,7.72,7.69c0,.86-.1,1.55-.74,1.71-.93.22-7.48.59-12.51.78.07,5.56,3.29,8.17,6.73,8.17a8.21,8.21,0,0,0,5.51-2.26ZM810.7,30.53c-2,0-3.84,2.19-4.26,6,2.22,0,4.35-.06,6.65-.14.74,0,1-.18,1-1C814.16,33,812.86,30.53,810.7,30.53Z"/><path class="cls-1" d="M847,49.19A68.86,68.86,0,0,0,838.29,51v-2.9c-.86.56-2.08,1.26-2.94,1.82a6,6,0,0,1-2.89,1c-4,0-9.55-3.62-9.55-10.62,0-6.61,5.82-11.76,13-11.76a9.39,9.39,0,0,1,2.39.28V22.84c0-2.73-.27-2.92-3.4-3.27V18.1a58.37,58.37,0,0,0,8.79-1.63V44.54c0,2.56.3,2.83,2.11,3l1.22.13Zm-8.72-16.1a4.48,4.48,0,0,0-4.1-2.41c-1.77,0-5.29,1.19-5.29,8.13,0,6.12,3.53,8.7,6,8.74a6,6,0,0,0,3.38-1.13Z"/><path class="cls-1" d="M860.6,28.62a10.55,10.55,0,0,1,10.84,10.81c0,7.75-5.63,11.57-11,11.57a10.81,10.81,0,0,1-11.13-11A11.2,11.2,0,0,1,860.6,28.62ZM860,30.44c-2.37,0-4.6,2.39-4.6,8.18,0,6,2.22,10.51,5.56,10.51,2.23,0,4.38-1.57,4.38-8.42C865.37,34.4,863.44,30.44,860,30.44Z"/><rect class="cls-1" x="87.14" y="30.55" width="235" height="5.91"/><rect class="cls-1" x="904.54" y="30.55" width="235" height="5.91"/></g><g id="Layer_2" data-name="Layer 2"><rect class="cls-1" x="11.6" y="29.62" width="41.99" height="9.75" transform="translate(-14.85 33.15) rotate(-45)"/><rect class="cls-1" x="22.99" y="41.02" width="41.99" height="9.75" transform="translate(-19.57 44.55) rotate(-45)"/><rect class="cls-1" x="0.2" y="18.23" width="41.99" height="9.75" transform="translate(-10.13 21.75) rotate(-45)"/><rect class="cls-1" x="1176.69" y="37.38" width="18.25" height="10.11" transform="translate(317.31 850.93) rotate(-45)"/><rect class="cls-1" x="1194.57" y="19.51" width="18.25" height="10.11" transform="translate(335.18 858.33) rotate(-45)"/><rect class="cls-1" x="1164.88" y="25.57" width="18.25" height="10.11" transform="translate(322.21 839.12) rotate(-45)"/><rect class="cls-1" x="1182.75" y="7.7" width="18.25" height="10.11" transform="translate(340.08 846.52) rotate(-45)"/><rect class="cls-1" x="1188.51" y="49.19" width="18.25" height="10.11" transform="translate(312.42 862.74) rotate(-45)"/><rect class="cls-1" x="1206.38" y="31.32" width="18.25" height="10.11" transform="translate(330.29 870.14) rotate(-45)"/></g></svg>
